<?xml version="1.0" standalone="no"?>
<!DOCTYPE svg PUBLIC "-//W3C//DTD SVG 20010904//EN"
 "http://www.w3.org/TR/2001/REC-SVG-20010904/DTD/svg10.dtd">
<svg version="1.0" xmlns="http://www.w3.org/2000/svg"
 width="376.000000pt" height="376.000000pt" viewBox="0 0 376.000000 376.000000"
 preserveAspectRatio="xMidYMid meet">
<metadata>
Created by potrace 1.14, written by Peter Selinger 2001-2017
</metadata>
<g transform="translate(0.000000,376.000000) scale(0.100000,-0.100000)"
fill="#000000" stroke="none">
<path d="M2655 3545 l-25 -24 0 -351 0 -350 -350 0 -351 0 -24 -25 -25 -24 0
-399 c0 -389 1 -400 21 -426 l20 -26 355 0 354 0 0 -349 c0 -337 1 -349 21
-375 l20 -26 410 0 c396 0 410 1 429 20 20 20 20 33 20 1180 0 1147 0 1160
-20 1180 -19 19 -33 20 -425 20 l-406 0 -24 -25z m725 -425 l0 -300 -300 0
-300 0 0 300 0 300 300 0 300 0 0 -300z m-750 -750 l0 -300 -300 0 -300 0 0
300 0 300 300 0 300 0 0 -300z m750 0 l0 -300 -300 0 -300 0 0 300 0 300 300
0 300 0 0 -300z m0 -750 l0 -300 -300 0 -300 0 0 300 0 300 300 0 300 0 0
-300z"/>
<path d="M280 3343 c-8 -3 -23 -12 -32 -21 -17 -14 -18 -101 -18 -1554 0
-1525 0 -1538 20 -1558 20 -20 33 -20 1178 -20 l1159 0 21 23 c22 23 22 26 22
429 l0 407 -26 20 c-26 21 -33 21 -750 21 l-724 0 0 1101 0 1101 -29 29 -29
29 -389 -1 c-213 0 -395 -3 -403 -6z m695 -448 l0 -300 -297 -3 -298 -2 0 305
0 305 298 -2 297 -3 0 -300z m5 -755 l0 -300 -300 0 -300 0 0 300 0 300 300 0
300 0 0 -300z m0 -750 l0 -300 -300 0 -300 0 0 300 0 300 300 0 300 0 0 -300z
m0 -750 l0 -300 -300 0 -300 0 0 300 0 300 300 0 300 0 0 -300z m750 0 l0
-300 -300 0 -300 0 0 300 0 300 300 0 300 0 0 -300z m750 0 l0 -300 -300 0
-300 0 0 300 0 300 300 0 300 0 0 -300z"/>
</g>
</svg>
